<?xml version="1.0" encoding="utf-8"?>
<!-- Generator: Adobe Illustrator 22.1.0, SVG Export Plug-In . SVG Version: 6.00 Build 0)  -->
<svg version="1.1" id="Layer_1" xmlns="http://www.w3.org/2000/svg" xmlns:xlink="http://www.w3.org/1999/xlink" x="0px" y="0px"
	 viewBox="0 0 491 491" style="enable-background:new 0 0 491 491;" xml:space="preserve">
<style type="text/css">
	.st0{fill:#FFFFFF;}
	.st1{fill:#D4E1F4;}
	.st2{fill:#0635C9;}
	.st3{fill:none;}
</style>
<g>
	<path class="st0" d="M350.6,432.5v-13.8c-0.2,0.1-0.5,0.2-0.7,0.3v44h22.3c-0.2-7-0.5-17.1-0.9-29.2h-0.2h-17.8
		C352.5,433.3,351.6,432.9,350.6,432.5z"/>
	<path class="st0" d="M339.1,383.9c-4.3,0-7.7,3.4-7.7,7.7c0,4.2,3.5,7.7,7.7,7.7c4.3,0,7.7-3.4,7.7-7.7
		C346.8,387.3,343.3,383.9,339.1,383.9z"/>
	<path class="st0" d="M233,441.8V463h95v-29.8c-0.4,0.2-0.8,0.4-1.2,0.6h-96.1c0.8,1.8,1.4,3.6,1.9,5.5
		C232.9,440.1,233,441,233,441.8z"/>
	<path class="st0" d="M170.6,68.3v-4.8c-15.1,13-27.9,28.6-37.7,46.1C154.1,107.6,170.6,89.8,170.6,68.3z"/>
	<path class="st0" d="M134.7,207.5c3.9-6.8,3.9-15.2,0-22c-4-6.8-11.3-11-19.2-10.8h-3.2c-0.3,3-0.6,6-0.7,9.1
		c-0.1,2-0.2,19-0.2,34.7h4.2C123.3,218.5,130.7,214.3,134.7,207.5z"/>
	<path class="st0" d="M264.7,259.8c4.8-3.2,11.2-2,14.4,2.7l8.8,13c3.1-7.6,1-16.4-5.5-21.7c-6.4-5.2-15.5-5.7-22.4-1.1
		c-6.9,4.5-9.9,13.1-7.5,21.1c2.4,8,9.6,13.3,18,13.3c0.1,0,0.1,0,0.2,0l-8.8-13C258.8,269.5,260,263,264.7,259.8z"/>
	<path class="st0" d="M144.2,412.1C144.2,412.1,144.2,412.1,144.2,412.1c-0.7,0-1.3,0-1.6,0C143.1,412.2,143.6,412.2,144.2,412.1z"
		/>
	<path class="st0" d="M249.7,22.3c-0.1,0-0.1,0-0.2,0C249.6,22.3,249.7,22.3,249.7,22.3L249.7,22.3z"/>
	<path class="st0" d="M321.8,95.4h68.6c-26-42.2-70.6-69.2-119.9-72.9v21.6C270.4,72.4,293.4,95.4,321.8,95.4z"/>
	<path class="st0" d="M225.5,202.6c-34.7,23.5-45,69.8-23.8,105.9c21.2,36,66.7,49.4,104.1,30.6l-22.6-33.4
		c-18.7,6.4-39.3-1.9-48.1-19.7c-8.8-17.7-3.2-39.3,13.1-50.4c16.4-11.2,38.5-8.5,51.7,6.3c13.2,14.8,13.5,37,0.6,52.1l22.6,33.4
		c31.3-27.8,35.6-75,9.6-108C307,186.4,260.2,179.2,225.5,202.6z M234.7,311.7c3.2-1.8,7.1-1.8,10.4,0.1c7.7,4.5,16.6,6.9,25.5,6.9
		c0.7,0,1.3,0,2,0c3.8-0.2,7.3,1.7,9.3,4.8c1.9,3.1,2.1,7,0.4,10.4c-1.7,3.2-5.1,5.4-8.8,5.5c-1,0.1-1.8,0.1-2.7,0.1h-0.1
		c-12.6,0-25-3.3-35.9-9.6c-3.2-1.8-5.2-5.2-5.2-9.2C229.5,317,231.5,313.5,234.7,311.7z M240.8,227.8c-7.7,5.6-13.7,13.5-17.2,22.4
		c-1.3,3.5-4.4,6-8.1,6.6c-3.7,0.6-7.4-0.8-9.8-3.7c-2.4-2.9-3-6.8-1.5-10.2c4.9-12.6,13.2-23.7,24.2-31.7c3-2.3,6.9-2.7,10.5-1.3
		c3.5,1.5,5.8,4.8,6.2,8.5C245.4,221.9,243.8,225.6,240.8,227.8z M341.6,268.4c0,2.9-0.1,5.6-0.5,8.5c-0.6,5.2-5,9.2-10.2,9.2
		c-0.4,0-0.7-0.1-1.2-0.1c-5.7-0.7-9.8-5.8-9.1-11.6c0.2-1.9,0.4-3.9,0.4-6c0-7.6-1.7-15.1-5-21.9c-1.2-2.5-2.5-4.8-4-7
		c-1.8-2.5-3.8-4.9-6-7c-4-4-4.2-10.6-0.1-14.7c4-4,10.6-4.2,14.7-0.1c3.2,3.1,6,6.4,8.5,10c2.1,3.2,4,6.4,5.7,9.9
		C339.3,247.1,341.7,257.7,341.6,268.4z"/>
	<path class="st0" d="M368,386c2.7,13.6-4.7,27.3-17.4,32.8v13.8c1,0.4,1.9,0.8,2.8,1.3h17.8c-0.2-41.6,0.5-82.8,2.9-108.8
		c2-21.2,20-66.1,22-71.1c0.2-0.2,0.4-0.6,0.5-0.8c8.8-16.8,14.5-35.1,16.9-54l-59.3,14.8c27.6,42.2,19.3,98.5-19.4,131l12.4,18.3
		C357.6,366.1,365.8,374.8,368,386z"/>
	<path class="st0" d="M328.1,433.2V419c-13.3-5.2-20.8-19.1-18.2-33.1c1.7-8.6,7-15.8,14.2-20l-6.5-9.5
		c-12.7,6.8-26.9,10.8-41.3,11.7c-5.5,26.7-24.1,48.8-49.4,58.8c1.6,2.1,2.9,4.5,4,6.9h96.1C327.3,433.6,327.7,433.4,328.1,433.2z"
		/>
	<path class="st0" d="M321.8,116c-39.8,0-72.1-32.3-72.1-72.1V25.2c-21.2,4-40.9,12-58.5,23v20.1c0,34.3-27.9,62.2-62.2,62.2h-6
		c-3,7.6-5.4,15.4-7.3,23.5c15.2,0,29.2,8.1,36.8,21.2c7.6,13.2,7.6,29.5,0,42.8c-7.7,13.2-21.9,21.3-37.2,21.2H105l-28,73.3h24.3
		h1.8h24.1c5.7,0,10.4,4.6,10.4,10.4v59.6c0,15.1,11.2,27.7,26.1,29.7c8.5-0.1,19.7-0.1,33.7-0.2h0.2c27.2-0.1,50.9-18.5,57.8-44.7
		c-42.5-6.4-76.1-39.5-83.4-81.9c-7.1-42.4,13.6-84.7,51.6-104.9c38-20.2,84.6-13.8,115.8,15.8l75.3-18.7
		c-0.4-21.2-4.9-42-13.3-61.3H321.8z"/>
	<path class="st1" d="M170.6,63.4V46c-26,15.5-47.3,37.4-62.1,63.7h20.5c1.3,0,2.6-0.1,3.9-0.2C142.7,92,155.5,76.4,170.6,63.4z"/>
	<path class="st1" d="M112.3,174.6H88.2c-0.4,3-0.6,6-0.7,8.9c-0.1,2-0.2,19.1-0.2,34.8h24.1c0-15.7,0.1-32.6,0.2-34.7
		C111.7,180.7,112,177.6,112.3,174.6z"/>
	<path class="st1" d="M91.5,153.9h23.8c0.1,0,0.3,0,0.4,0c1.9-8.1,4.3-15.9,7.3-23.5H98.8C95.8,138.1,93.4,145.9,91.5,153.9z"/>
	<path class="st1" d="M191.2,48.2c17.6-11,37.3-19,58.5-23v-2.9c-0.1,0-0.1,0-0.2,0c-20.1,1-39.8,5.4-58.3,13.2V48.2z"/>
	<polygon class="st1" points="80.8,239.1 52.8,312.3 77,312.3 105,239.1 	"/>
	<path class="st1" d="M137.5,382.3v-59.6c0-5.7-4.6-10.4-10.4-10.4h-24.1c5.7,0,10.4,4.6,10.4,10.4v59.6c0,8.1,3.3,15.8,9.1,21.4
		c5.3,5.2,12.5,8.3,20,8.5c0.3,0,0.9,0,1.7,0c1.4-0.1,7.9-0.1,19.4-0.2C148.7,410,137.5,397.4,137.5,382.3z"/>
	<path class="st2" d="M115.5,174.6c7.9-0.1,15.1,4,19.2,10.8c3.9,6.8,3.9,15.2,0,22s-11.3,11-19.2,10.8h-4.2c0,0.8,0,1.6,0,2.4
		c0,1.3-0.2,2.5-0.7,3.7l-5.6,14.7h10.4c15.2,0.1,29.4-8,37.2-21.2c7.6-13.2,7.6-29.5,0-42.8C145,162,131,154,115.8,153.9
		c-1.6,6.8-2.7,13.7-3.5,20.7H115.5z"/>
	<path class="st2" d="M170.6,68.3c0,21.6-16.5,39.3-37.7,41.3c-3.8,6.7-7.1,13.7-9.9,20.9h6c34.3,0,62.2-27.9,62.2-62.2V48.2
		c-7.3,4.6-14.1,9.6-20.6,15.2V68.3z"/>
	<path class="st2" d="M269.1,22.7c-2.1-0.1-4.3-0.2-6.4-0.4c-1.4-0.1-3-0.1-4.4-0.1c-0.6,0-1.3,0-1.9,0c-2.2,0-4.5,0-6.7,0.1v2.9
		C256.1,24,262.5,23.1,269.1,22.7z"/>
	<path class="st2" d="M80.8,239.1H105l5.6-14.7c0.5-1.2,0.7-2.4,0.7-3.7c0-0.8,0-1.6,0-2.4H87.2c0-15.7,0.1-32.8,0.2-34.8
		c0.1-3,0.4-6,0.7-8.9h24.1c0.7-7,1.9-14,3.5-20.7c-0.1,0-0.3,0-0.4,0H91.5c1.9-8,4.3-15.8,7.3-23.5h24.3c2.8-7.2,6.1-14.2,9.9-20.9
		c-1.3,0.1-2.6,0.2-3.9,0.2h-20.5c14.8-26.3,36.1-48.2,62.1-63.7v17.4c6.5-5.6,13.4-10.7,20.6-15.2V35.5
		c18.5-7.8,38.2-12.2,58.3-13.2C161.8,25.5,90.3,95.2,85.7,183.7c-0.1,2.1-0.2,20.6-0.2,37c0,1.3-0.2,2.5-0.7,3.7l-33.6,88H77l0-0.1
		H52.8L80.8,239.1z"/>
	<path class="st2" d="M113.5,382.3v-59.6c0-5.7-4.6-10.4-10.4-10.4h-1.8c5.7,0,10.4,4.6,10.4,10.4v59.6c0,8.1,3.3,15.8,9.1,21.4
		c5.7,5.6,13.6,8.7,21.7,8.5c0,0,0.1,0,0.1,0c-7.5-0.2-14.7-3.2-20-8.5C116.8,398.1,113.5,390.4,113.5,382.3z"/>
	<path class="st2" d="M164.3,412c-0.2,0-0.4-0.1-0.7-0.1c-11.6,0.1-18.1,0.1-19.4,0.2C147.4,412.1,154.1,412.1,164.3,412z"/>
	<path class="st2" d="M320.5,217.6c-4-4-10.6-3.9-14.7,0.1c-4,4-3.9,10.6,0.1,14.7c2.1,2.1,4.2,4.5,6,7c1.5,2.3,2.9,4.5,4,7
		c3.3,6.8,5,14.3,5,21.9c0,2-0.1,4-0.4,6c-0.7,5.7,3.3,10.8,9.1,11.6c0.5,0,0.8,0.1,1.2,0.1c5.2,0,9.6-3.9,10.2-9.2
		c0.4-2.9,0.5-5.6,0.5-8.5c0.1-10.7-2.3-21.3-6.9-30.8c-1.7-3.5-3.6-6.7-5.7-9.9C326.4,224.1,323.7,220.7,320.5,217.6z"/>
	<path class="st2" d="M238.9,209.8c-3.6-1.4-7.5-1-10.5,1.3c-11,8-19.3,19.1-24.2,31.7c-1.4,3.5-0.8,7.4,1.5,10.2
		c2.4,2.9,6.1,4.3,9.8,3.7c3.7-0.6,6.8-3.1,8.1-6.6c3.5-8.9,9.4-16.8,17.2-22.4c3-2.1,4.6-5.8,4.3-9.5
		C244.7,214.5,242.3,211.3,238.9,209.8z"/>
	<path class="st2" d="M234.7,329.8c10.8,6.3,23.2,9.6,35.9,9.6h0.1c1,0,1.8,0,2.7-0.1c3.7-0.1,7.1-2.3,8.8-5.5
		c1.8-3.3,1.5-7.3-0.4-10.4c-2-3.1-5.5-5-9.3-4.8c-0.7,0-1.3,0-2,0c-8.9,0-17.7-2.4-25.5-6.9c-3.2-1.9-7.1-1.9-10.4-0.1
		c-3.2,1.8-5.2,5.2-5.2,8.9C229.5,324.6,231.5,328.1,234.7,329.8z"/>
	<path class="st2" d="M329.9,376.4v1.4h20.7v-1.3v-5.1c0-2-0.6-4-1.8-5.8l-1.7-2.4c-2.6-0.8-5.4-1.2-8.2-1.2c-5.4,0-10.5,1.4-14.9,4
		l5.8,8.6V376.4z"/>
	<path class="st2" d="M350.6,376.5v1.3h2.8C352.5,377.3,351.6,376.9,350.6,376.5z"/>
	<path class="st2" d="M326.9,377.8h3v-1.4C328.8,376.8,327.9,377.3,326.9,377.8z"/>
	<polygon class="st2" points="213.4,431.4 213.3,433.8 220.3,433.8 	"/>
	<path class="st2" d="M371.3,433.8h20.9c0-0.8,0-1.6,0-2.4h-21C371.3,432.2,371.3,433,371.3,433.8z"/>
	<path class="st2" d="M340.2,465.6c0.8,0,1.7-0.1,2.4-0.4h-4.8C338.6,465.5,339.4,465.6,340.2,465.6z"/>
	<path class="st2" d="M347.5,458.4c0-4-3.2-7.3-7.3-7.3c-3.9,0-7.1,3.2-7.3,7.3c0,3.2,2,5.9,4.9,6.9h4.8
		C345.5,464.2,347.5,461.6,347.5,458.4z"/>
	<path class="st2" d="M203.9,433.8c4,1.7,7.2,5.1,8.7,9.4v18.6l0.8-28H203.9z"/>
	<path class="st2" d="M231.5,463h1.5v-21.2c0-0.8-0.1-1.7-0.4-2.5c-0.5-1.9-1.1-3.7-1.9-5.5h-10.6l8.8,3.1L231.5,463z"/>
	<g>
		<path class="st3" d="M339.1,399.3c4.3,0,7.7-3.4,7.7-7.7c0-4.3-3.4-7.7-7.7-7.7c-4.3,0-7.7,3.4-7.7,7.7
			C331.3,395.8,334.9,399.3,339.1,399.3z"/>
		<path class="st3" d="M329.9,376.4c-1,0.4-2,0.9-3,1.4h3h20.7h2.8c-0.9-0.5-1.8-0.9-2.8-1.3v-5.1c0-2-0.6-4-1.8-5.8l-1.7-2.4
			c-2.6-0.8-5.4-1.2-8.2-1.2c-5.4,0-10.5,1.4-14.9,4l5.8,8.6V376.4z"/>
		<path class="st3" d="M368,386c2.7,13.6-4.7,27.3-17.4,32.8c-0.2,0.1-0.5,0.2-0.7,0.3v44h22.3c-0.2-7-0.5-17.1-0.9-29.2h-0.2
			c-0.2-41.6,0.5-82.8,2.9-108.8c2-21.2,20-66.1,22-71.1c0.2-0.2,0.4-0.6,0.5-0.8c8.8-16.8,14.5-35.1,16.9-54l-59.3,14.8
			c27.6,42.2,19.3,98.5-19.4,131l12.4,18.3C357.6,366.1,365.8,374.8,368,386z"/>
		<path class="st3" d="M231.5,463h1.5h95v-29.8V419c-13.3-5.2-20.8-19.1-18.2-33.1c1.7-8.6,7-15.8,14.2-20l-6.5-9.5
			c-12.7,6.8-26.9,10.8-41.3,11.7c-5.5,26.7-24.1,48.8-49.4,58.8c1.6,2.1,2.9,4.5,4,6.9h-10.6l8.8,3.1L231.5,463z"/>
		<polygon class="st3" points="213.4,431.4 213.3,433.8 220.3,433.8 		"/>
		<path class="st3" d="M347.5,458.4c0-4-3.2-7.3-7.3-7.3c-3.9,0-7.1,3.2-7.3,7.3c0,3.2,2,5.9,4.9,6.9c0.8,0.3,1.6,0.4,2.4,0.4
			s1.7-0.1,2.4-0.4C345.5,464.2,347.5,461.6,347.5,458.4z"/>
		<path class="st3" d="M321.8,116c-39.8,0-72.1-32.3-72.1-72.1V25.2c6.4-1.2,12.8-2.1,19.4-2.6c-2.1-0.1-4.3-0.2-6.4-0.4
			c-1.4-0.1-3-0.1-4.4-0.1c-0.6,0-1.3,0-1.9,0c-2.2,0-4.5,0-6.7,0.1v0c-0.1,0-0.1,0-0.2,0C161.8,25.5,90.3,95.2,85.7,183.7
			c-0.1,2.1-0.2,20.6-0.2,37c0,1.3-0.2,2.5-0.7,3.7l-33.6,88H77l0-0.1h24.3c5.7,0,10.4,4.6,10.4,10.4v59.6c0,8.1,3.3,15.8,9.1,21.4
			c5.7,5.6,13.6,8.7,21.7,8.5c0,0,0.1,0,0.1,0c0.5,0,1.1,0,1.6,0c0,0,0,0,0,0c3.1,0,9.9,0,20.1-0.1c-0.2,0-0.4-0.1-0.7-0.1
			c8.5-0.1,19.7-0.1,33.7-0.2h0.2c27.2-0.1,50.9-18.5,57.8-44.7c-42.5-6.4-76.1-39.5-83.4-81.9c-7.1-42.4,13.6-84.7,51.6-104.9
			c38-20.2,84.6-13.8,115.8,15.8l75.3-18.7c-0.4-21.2-4.9-42-13.3-61.3H321.8z"/>
		<path class="st3" d="M264.7,259.8c4.8-3.2,11.2-2,14.4,2.7l8.8,13c3.1-7.6,1-16.4-5.5-21.7c-6.4-5.2-15.5-5.7-22.4-1.1
			c-6.9,4.5-9.9,13.1-7.5,21.1c2.4,8,9.6,13.3,18,13.3c0.1,0,0.1,0,0.2,0l-8.8-13C258.8,269.5,260,263,264.7,259.8z"/>
		<path class="st3" d="M225.5,202.6c-34.7,23.5-45,69.8-23.8,105.9c21.2,36,66.7,49.4,104.1,30.6l-22.6-33.4
			c-18.7,6.4-39.3-1.9-48.1-19.7c-8.8-17.7-3.2-39.3,13.1-50.4c16.4-11.2,38.5-8.5,51.7,6.3c13.2,14.8,13.5,37,0.6,52.1l22.6,33.4
			c31.3-27.8,35.6-75,9.6-108C307,186.4,260.2,179.2,225.5,202.6z"/>
		<path class="st3" d="M321.8,95.4h68.6c-26-42.2-70.6-69.2-119.9-72.9v21.6C270.4,72.4,293.4,95.4,321.8,95.4z"/>
		<path class="st3" d="M371.3,433.8h20.9c0-0.8,0-1.6,0-2.4h-21C371.3,432.2,371.3,433,371.3,433.8z"/>
		<path class="st2" d="M371.3,433.8c0.3,12.1,0.6,22.2,0.9,29.2h-22.3v2.2h-7.3c-0.8,0.3-1.6,0.4-2.4,0.4s-1.7-0.1-2.4-0.4h-9.8V463
			h-95v1.7h-20.5v-2.8l-0.3,11.5c0,5.7,4.6,10.4,10.4,10.4h160.6c2.9,0,5.5-1.2,7.5-3.2c1.9-2,3-4.8,2.9-7.5c0-0.5-0.6-17-1.2-41.6
			h0c0,0.8,0,1.6,0,2.4H371.3z"/>
		<path class="st2" d="M411.1,89.2C380.7,36.8,325.6,3.7,265.2,1.6c-1.7-0.1-3.3-0.1-4.9-0.1h-0.1C157.6,0.4,72.5,80.1,66.9,182.5
			c-0.2,3.1-0.2,27.9-0.2,36.3l-34.1,89.3c-2.1,5.6-1.4,12,2,17c3.5,5,9.1,8,15.1,8h43.1v49.1c0,13.7,5.6,26.8,15.4,36.3
			c9.8,9.5,23.1,14.7,36.8,14.3c1.2,0,9.6-0.1,52.6-0.4c2.2,0,4.3,0.5,6.2,1.3h9.5l0.1-2.4l6.8,2.4h10.6c-1.1-2.4-2.4-4.8-4-6.9
			c25.4-10,44-32.2,49.4-58.8c14.4-0.8,28.6-4.9,41.3-11.7l6.5,9.5c4.4-2.5,9.5-4,14.9-4c2.8,0,5.6,0.4,8.2,1.2l-12.4-18.3
			c38.7-32.5,47-88.9,19.4-131l59.3-14.8c-2.4,18.8-8.1,37.2-16.9,54c-0.1,0.2-0.2,0.6-0.5,0.8c-2,5-20,49.9-22,71.1
			c-2.4,26-3.1,67.3-2.9,108.8h0.2c0-0.8,0-1.6-0.1-2.4h21c-0.1-40.3,0.5-79.9,2.8-104.6c1.4-15.1,15-51.5,20.4-64.8
			C443.9,207.5,442.2,142.2,411.1,89.2z M270.4,22.5c49.3,3.7,94,30.7,119.9,72.9h-68.6c-28.3,0-51.3-23-51.3-51.3V22.5z
			 M323.1,327.5l-22.6-33.4c12.9-15,12.6-37.3-0.6-52.1c-13.2-14.8-35.3-17.5-51.7-6.3c-16.3,11.1-21.9,32.6-13.1,50.4
			c8.8,17.7,29.4,26.1,48.1,19.7l22.6,33.4c-37.4,18.8-82.9,5.4-104.1-30.6c-21.2-36.1-10.8-82.4,23.8-105.9
			c34.7-23.5,81.5-16.2,107.2,16.8C358.7,252.4,354.4,299.7,323.1,327.5z M262,274.2l8.8,13c-0.1,0-0.1,0-0.2,0
			c-8.3,0-15.6-5.4-18-13.3c-2.4-8,0.6-16.6,7.5-21.1c6.9-4.6,16-4.2,22.4,1.1c6.4,5.2,8.6,14.1,5.5,21.7l-8.8-13
			c-3.2-4.8-9.6-6-14.4-2.7S258.8,269.5,262,274.2z M339.3,196.1c-31.2-29.7-77.8-36.1-115.8-15.8c-38,20.2-58.7,62.5-51.6,104.9
			c7.3,42.4,40.9,75.5,83.4,81.9c-6.9,26.2-30.6,44.5-57.8,44.7h-0.2c-13.9,0.1-25.2,0.1-33.7,0.2c0.2,0,0.4,0.1,0.7,0.1
			c-10.2,0.1-17,0.1-20.1,0.1c0,0,0,0,0,0c-0.5,0-1.1,0-1.6,0c0,0-0.1,0-0.1,0c-8.1,0.2-16-2.9-21.7-8.5c-5.7-5.6-9.1-13.3-9.1-21.4
			v-59.6c0-5.7-4.6-10.4-10.4-10.4H77l0,0.1H51.2l33.6-88c0.5-1.2,0.7-2.4,0.7-3.7c0-16.4,0.1-34.9,0.2-37
			c4.6-88.5,76.1-158.1,163.8-161.4c0.1,0,0.1,0,0.2,0v0c2.2-0.1,4.4-0.1,6.7-0.1c0.6,0,1.3,0,1.9,0c1.4,0,3,0,4.4,0.1
			c2.1,0.1,4.3,0.2,6.4,0.4c-6.6,0.5-13.1,1.3-19.4,2.6V44c0,39.8,32.3,72.1,72.1,72.1h79.4c8.5,19.3,13,40.1,13.3,61.3L339.3,196.1
			z"/>
		<path class="st2" d="M309.9,386c-2.7,14,4.9,27.9,18.2,33.1v14.2V463v2.2h9.8c-2.8-1-4.9-3.7-4.9-6.9c0.1-4,3.3-7.3,7.3-7.3
			c4,0,7.3,3.2,7.3,7.3c0,3.2-2,5.9-4.9,6.9h7.3V463v-44c0.2-0.1,0.5-0.2,0.7-0.3c12.7-5.5,20.1-19.1,17.4-32.8
			c-2.1-11.2-10.4-19.8-20.8-22.8l1.7,2.4c1.2,1.8,1.8,3.8,1.8,5.8v5.1c1,0.4,1.9,0.8,2.8,1.3h-2.8h-20.7h-3c1-0.5,1.9-1,3-1.4v-1.9
			l-5.8-8.6C316.9,370.1,311.5,377.3,309.9,386z M339.1,383.9c4.3,0,7.7,3.4,7.7,7.7c0,4.3-3.4,7.7-7.7,7.7c-4.2,0-7.7-3.5-7.7-7.7
			C331.3,387.3,334.8,383.9,339.1,383.9z"/>
		<polygon class="st2" points="233,464.7 233,463 231.5,463 229.1,436.9 220.3,433.8 213.3,433.8 212.6,461.8 212.6,464.7 		"/>
	</g>
</g>
</svg>
