<?xml version="1.0" encoding="utf-8"?>
<!-- Generator: Adobe Illustrator 22.1.0, SVG Export Plug-In . SVG Version: 6.00 Build 0)  -->
<svg version="1.1" id="Layer_1" xmlns="http://www.w3.org/2000/svg" xmlns:xlink="http://www.w3.org/1999/xlink" x="0px" y="0px"
	 viewBox="0 0 358.7 481.7" style="enable-background:new 0 0 358.7 481.7;" xml:space="preserve">
<style type="text/css">
	.st0{fill:#2F3E4E;}
	.st1{fill:#32567D;}
	.st2{fill:#5182BE;}
	.st3{clip-path:url(#SVGID_2_);}
	.st4{clip-path:url(#SVGID_4_);}
	.st5{opacity:0.61;}
	.st6{fill:#D4E1F4;}
	.st7{fill:#FFFFFF;}
	.st8{fill:#1AE5BE;}
	.st9{clip-path:url(#SVGID_6_);}
</style>
<path class="st0" d="M274.8,455v24H82.9v-24H274.8z"/>
<path class="st1" d="M178.8,431c28.5,0,55.4-12.6,79.1-35l0.9,1v58H98.9v-58l0.9-1C123.5,418.3,150.4,431,178.8,431z"/>
<path class="st0" d="M178.8,1C214.3,1,243,8.2,243,17s-28.7,16-64.2,16c-35.4,0-64.2-7.2-64.2-16S143.4,1,178.8,1z"/>
<path class="st2" d="M322.6,97v-0.2c-17.9,0-34.4-5.9-47.8-15.9c-19.4-14.6-31.9-37.7-31.9-63.8h-0.1c0,8.8-28.7,16-64.2,16
	c-35.4,0-64.2-7.2-64.2-16c0,26.1-12.5,49.3-31.8,63.8c-13.4,10.1-29.9,16-47.9,16V97c-17.7,0.1-31.9,14.3-31.9,32l-0.1,0.2
	c0,121.8,39.5,213.4,97,266.9c23.8,22.3,50.6,35,79,35c28.5,0,55.4-12.6,79.1-35c57.4-53.5,96.9-145,96.9-266.9h0.1
	C354.9,111.4,340.5,97,322.6,97z"/>
<g>
	<defs>
		<path id="SVGID_1_" d="M281,74.6c-0.3-0.3-0.5-0.5-0.8-0.7c0,0,0,0,0,0c-0.3-0.2-0.6-0.4-1-0.5c-1.1-0.5-2.4-0.7-3.6-0.4
			c-1.6,0.3-3,1.2-3.9,2.5l0,0c-0.1,0.1-0.1,0.2-0.2,0.2l-4.9,7.1c-1.7,2.4-1.3,5.7,0.7,7.7l-3.5,5c-1.1-0.5-2.4-0.7-3.6-0.4
			c-1.6,0.3-3,1.2-3.9,2.5l0,0c-0.1,0.1-0.1,0.2-0.2,0.2l-4.9,7.1c-1.7,2.4-1.3,5.7,0.7,7.7l-3.5,5c-1.1-0.5-2.4-0.7-3.6-0.4
			c-1.6,0.3-3,1.2-3.9,2.5l0,0c-0.1,0.1-0.1,0.2-0.2,0.2l-4.9,7.1c-1.7,2.4-1.3,5.7,0.7,7.7l-3.5,5c-1.1-0.5-2.4-0.7-3.6-0.4
			c-1.6,0.3-3,1.2-3.9,2.5l0,0c-0.1,0.1-0.1,0.2-0.2,0.2l-4.9,7.1c-1.7,2.4-1.3,5.7,0.7,7.7l-3.5,5c-1.1-0.5-2.4-0.7-3.6-0.4
			c-1.6,0.3-3,1.2-3.9,2.5l0,0c-0.1,0.1-0.1,0.2-0.2,0.2l-4.9,7.1c-1.7,2.4-1.3,5.7,0.7,7.7l-3.5,5c-1.1-0.5-2.4-0.7-3.6-0.4
			c-1.6,0.3-3,1.2-3.9,2.5l0,0c-0.1,0.1-0.1,0.2-0.2,0.2l-4.9,7.1c-1.7,2.4-1.3,5.7,0.7,7.7l-3.5,5c-1.1-0.5-2.4-0.7-3.6-0.4
			c-1.6,0.3-3,1.2-3.9,2.5l-0.7,1l-0.7-1c-0.9-1.3-2.3-2.2-3.9-2.5c-1.2-0.2-2.5-0.1-3.6,0.4l-3.5-5c2-2,2.4-5.3,0.7-7.7l-4.9-7.1
			c-0.1-0.1-0.1-0.2-0.2-0.2l0,0c-0.9-1.3-2.3-2.2-3.9-2.5c-1.2-0.2-2.5-0.1-3.6,0.4l-3.5-5c2-2,2.4-5.3,0.7-7.7l-4.9-7.1
			c-0.1-0.1-0.1-0.2-0.2-0.2l0,0c-0.9-1.3-2.3-2.2-3.9-2.5c-1.2-0.2-2.5-0.1-3.6,0.4l-3.5-5c2-2,2.4-5.3,0.7-7.7l-4.9-7.1
			c-0.1-0.1-0.1-0.2-0.2-0.2l0,0c-0.9-1.3-2.3-2.2-3.9-2.5c-1.2-0.2-2.5-0.1-3.6,0.4l-3.5-5c2-2,2.4-5.3,0.7-7.7l-4.9-7.1
			c-0.1-0.1-0.1-0.2-0.2-0.2l0,0c-0.9-1.3-2.3-2.2-3.9-2.5c-1.2-0.2-2.5-0.1-3.6,0.4l-3.5-5c2-2,2.4-5.3,0.7-7.7l-4.9-7.1
			c-0.1-0.1-0.1-0.2-0.2-0.2l0,0c-0.9-1.3-2.3-2.2-3.9-2.5c-1.2-0.2-2.5-0.1-3.6,0.4l-3.5-5c2-2,2.4-5.3,0.7-7.7l-4.9-7.1
			c-0.1-0.1-0.1-0.2-0.2-0.2l0,0c-0.9-1.3-2.3-2.2-3.9-2.5c-1.2-0.2-2.5-0.1-3.6,0.4c-0.3,0.1-0.7,0.3-1,0.5c0,0,0,0,0,0
			c-0.3,0.2-0.6,0.4-0.8,0.7c-2,2-2.4,5.3-0.7,7.7l4.9,7.1c0.1,0.1,0.1,0.2,0.2,0.2l0,0c0.9,1.3,2.3,2.2,3.9,2.5
			c1.2,0.2,2.5,0.1,3.6-0.4l3.5,5c-2,2-2.4,5.3-0.7,7.7l4.9,7.1c0.1,0.1,0.1,0.2,0.2,0.2l0,0c0.9,1.3,2.3,2.2,3.9,2.5
			c1.2,0.2,2.5,0.1,3.6-0.4l3.5,5c-2,2-2.4,5.3-0.7,7.7l4.9,7.1c0.1,0.1,0.1,0.2,0.2,0.2l0,0c0.9,1.3,2.3,2.2,3.9,2.5
			c1.2,0.2,2.5,0.1,3.6-0.4l3.5,5c-2,2-2.4,5.3-0.7,7.7l4.9,7.1c0.1,0.1,0.1,0.2,0.2,0.2l0,0c0.9,1.3,2.3,2.2,3.9,2.5
			c1.2,0.2,2.5,0.1,3.6-0.4l3.5,5c-2,2-2.4,5.3-0.7,7.7l4.9,7.1c0.1,0.1,0.1,0.2,0.2,0.2l0,0c0.9,1.3,2.3,2.2,3.9,2.5
			c1.2,0.2,2.5,0.1,3.6-0.4l3.5,5c-2,2-2.4,5.3-0.7,7.7l4.9,7.1c0.1,0.1,0.1,0.2,0.2,0.2l0,0c0.9,1.3,2.3,2.2,3.9,2.5
			c1.2,0.2,2.5,0.1,3.6-0.4l3.5,5c-2,2-2.4,5.3-0.7,7.7l4.9,7.1c0.9,1.3,2.3,2.2,3.9,2.5c0.6,0.1,1.3,0.1,1.9,0
			c0.6,0.1,1.3,0.1,1.9,0c1.6-0.3,3-1.2,3.9-2.5l4.9-7.1c1.7-2.4,1.3-5.7-0.7-7.7l3.5-5c1.1,0.5,2.4,0.7,3.6,0.4
			c1.6-0.3,3-1.2,3.9-2.5l0,0c0.1-0.1,0.1-0.2,0.2-0.2l4.9-7.1c1.7-2.4,1.3-5.7-0.7-7.7l3.5-5c1.1,0.5,2.4,0.7,3.6,0.4
			c1.6-0.3,3-1.2,3.9-2.5l0,0c0.1-0.1,0.1-0.2,0.2-0.2l4.9-7.1c1.7-2.4,1.3-5.7-0.7-7.7l3.5-5c1.1,0.5,2.4,0.7,3.6,0.4
			c1.6-0.3,3-1.2,3.9-2.5l0,0c0.1-0.1,0.1-0.2,0.2-0.2l4.9-7.1c1.7-2.4,1.3-5.7-0.7-7.7l3.5-5c1.1,0.5,2.4,0.7,3.6,0.4
			c1.6-0.3,3-1.2,3.9-2.5l0,0c0.1-0.1,0.1-0.2,0.2-0.2l4.9-7.1c1.7-2.4,1.3-5.7-0.7-7.7l3.5-5c1.1,0.5,2.4,0.7,3.6,0.4
			c1.6-0.3,3-1.2,3.9-2.5l0,0c0.1-0.1,0.1-0.2,0.2-0.2l4.9-7.1c1.7-2.4,1.3-5.7-0.7-7.7l3.5-5c1.1,0.5,2.4,0.7,3.6,0.4
			c1.6-0.3,3-1.2,3.9-2.5l0,0c0.1-0.1,0.1-0.2,0.2-0.2l4.9-7.1C283.4,79.9,283.1,76.6,281,74.6z M88.8,88.4l-3.2-4.7
			c-0.3-0.5-1-0.6-1.5-0.3c0,0,0,0,0,0c-0.5,0.3-0.6,1-0.3,1.5l3.3,4.8c-0.6,0.2-1.3,0.3-1.9,0.2c-1-0.2-1.8-0.7-2.4-1.5L78,81.4
			c-1-1.4-0.9-3.3,0.2-4.6l3.2,4.7c0.2,0.3,0.4,0.4,0.7,0.5c0.3,0.1,0.6,0,0.8-0.2c0,0,0,0,0,0c0.5-0.3,0.6-1,0.3-1.5l-3.3-4.8
			c0.6-0.2,1.3-0.3,1.9-0.2c1,0.2,1.8,0.7,2.4,1.5l4.8,6.9C90,85.2,89.9,87,88.8,88.4z M104.2,110.6l-3.2-4.7
			c-0.3-0.5-1-0.6-1.5-0.3c0,0,0,0,0,0c-0.5,0.3-0.6,1-0.3,1.5l3.3,4.8c-0.6,0.2-1.3,0.3-1.9,0.2c-1-0.2-1.8-0.7-2.4-1.5l-4.8-6.9
			c-1-1.4-0.9-3.3,0.2-4.6l3.2,4.7c0.2,0.3,0.4,0.4,0.7,0.5c0.3,0.1,0.6,0,0.8-0.2c0,0,0,0,0,0c0.5-0.3,0.6-1,0.3-1.5l-3.3-4.8
			c0.6-0.2,1.3-0.3,1.9-0.2c1,0.2,1.8,0.7,2.4,1.5l4.8,6.9C105.4,107.4,105.2,109.3,104.2,110.6z M119.6,132.8l-3.2-4.7
			c-0.3-0.5-1-0.6-1.5-0.3c0,0,0,0,0,0c-0.5,0.3-0.6,1-0.3,1.5l3.3,4.8c-0.6,0.2-1.3,0.3-1.9,0.2c-1-0.2-1.8-0.7-2.4-1.5l-4.8-6.9
			c-1-1.4-0.9-3.3,0.2-4.6l3.2,4.7c0.2,0.3,0.4,0.4,0.7,0.5c0.3,0.1,0.6,0,0.8-0.2c0,0,0,0,0,0c0.5-0.3,0.6-1,0.3-1.5l-3.3-4.8
			c0.6-0.2,1.3-0.3,1.9-0.2c1,0.2,1.8,0.7,2.4,1.5l4.8,6.9C120.7,129.6,120.6,131.5,119.6,132.8z M134.9,155l-3.2-4.7
			c-0.3-0.5-1-0.6-1.5-0.3c0,0,0,0,0,0c-0.5,0.3-0.6,1-0.3,1.5l3.3,4.8c-0.6,0.2-1.3,0.3-1.9,0.2c-1-0.2-1.8-0.7-2.4-1.5l-4.8-6.9
			c-1-1.4-0.9-3.3,0.2-4.6l3.2,4.7c0.2,0.3,0.4,0.4,0.7,0.5c0.3,0.1,0.6,0,0.8-0.2c0,0,0,0,0,0c0.5-0.3,0.6-1,0.3-1.5l-3.3-4.8
			c0.6-0.2,1.3-0.3,1.9-0.2c1,0.2,1.8,0.7,2.4,1.5l4.8,6.9C136.1,151.8,136,153.7,134.9,155z M150.3,177.3l-3.2-4.7
			c-0.3-0.5-1-0.6-1.5-0.3c0,0,0,0,0,0c-0.5,0.3-0.6,1-0.3,1.5l3.3,4.8c-0.6,0.2-1.3,0.3-1.9,0.2c-1-0.2-1.8-0.7-2.4-1.5l-4.8-6.9
			c-1-1.4-0.9-3.3,0.2-4.6l3.2,4.7c0.2,0.3,0.4,0.4,0.7,0.5c0.3,0.1,0.6,0,0.8-0.2c0,0,0,0,0,0c0.5-0.3,0.6-1,0.3-1.5l-3.3-4.8
			c0.6-0.2,1.3-0.3,1.9-0.2c1,0.2,1.8,0.7,2.4,1.5l4.8,6.9C151.5,174.1,151.3,176,150.3,177.3z M165.7,199.5l-3.2-4.7
			c-0.3-0.5-1-0.6-1.5-0.3c0,0,0,0,0,0c-0.5,0.3-0.6,1-0.3,1.5l3.3,4.8c-0.6,0.2-1.3,0.3-1.9,0.2c-1-0.2-1.8-0.7-2.4-1.5l-4.8-6.9
			c-1-1.4-0.9-3.3,0.2-4.6l3.2,4.7c0.2,0.3,0.4,0.4,0.7,0.5c0.3,0.1,0.6,0,0.8-0.2c0,0,0,0,0,0c0.5-0.3,0.6-1,0.3-1.5l-3.3-4.8
			c0.6-0.2,1.3-0.3,1.9-0.2c1,0.2,1.8,0.7,2.4,1.5l4.8,6.9C166.8,196.3,166.7,198.2,165.7,199.5z M174.6,215.9
			c-0.8,1.2-1.2,2.6-1.1,3.9l-3.6-5.3c-1-1.5-0.9-3.3,0.2-4.7l3.4,5c0.2,0.3,0.4,0.4,0.7,0.5c0.3,0.1,0.6,0,0.8-0.2c0,0,0,0,0,0
			c0,0,0.1-0.1,0.1-0.1L174.6,215.9z M175.4,213.6l-3.5-5.1c0.6-0.2,1.3-0.3,1.9-0.2c1,0.2,1.9,0.8,2.5,1.6l1.2,1.7l-2,2.9
			C175.6,214.3,175.6,213.9,175.4,213.6z M180.2,222.5C180.2,222.5,180.2,222.5,180.2,222.5c-0.4,0.3-0.9,0.5-1.4,0.6
			c-0.5-0.1-0.9-0.3-1.4-0.6c0,0,0,0,0,0c-1.8-1.2-2.2-3.7-1-5.4l2.4-3.4l2.4,3.4C182.4,218.8,182,221.3,180.2,222.5z M182.1,214.6
			l-2-2.9l1.2-1.7c0.6-0.9,1.5-1.4,2.5-1.6c0.7-0.1,1.3-0.1,1.9,0.2l-3.5,5.1C182,213.9,182,214.3,182.1,214.6z M187.7,214.5
			l-3.6,5.3c0.1-1.3-0.2-2.7-1.1-3.9l-0.6-0.8c0,0,0,0.1,0.1,0.1c0,0,0,0,0,0c0.2,0.2,0.5,0.2,0.8,0.2c0.3-0.1,0.5-0.2,0.7-0.5
			l3.4-5C188.6,211.1,188.7,213,187.7,214.5z M202.9,192.6l-4.8,6.9c-0.6,0.8-1.4,1.3-2.4,1.5c-0.7,0.1-1.3,0.1-1.9-0.2l3.3-4.8
			c0.3-0.5,0.2-1.2-0.3-1.5c0,0,0,0,0,0c-0.5-0.3-1.2-0.2-1.5,0.3l-3.2,4.7c-1-1.3-1.2-3.2-0.2-4.6l4.8-6.9c0.6-0.8,1.4-1.3,2.4-1.5
			c0.7-0.1,1.3-0.1,1.9,0.2l-3.3,4.8c-0.3,0.5-0.2,1.2,0.3,1.5c0,0,0,0,0,0c0.2,0.2,0.5,0.2,0.8,0.2c0.3-0.1,0.5-0.2,0.7-0.5
			l3.2-4.7C203.7,189.2,203.9,191.1,202.9,192.6z M218.2,170.3l-4.8,6.9c-0.6,0.8-1.4,1.3-2.4,1.5c-0.7,0.1-1.3,0.1-1.9-0.2l3.3-4.8
			c0.3-0.5,0.2-1.2-0.3-1.5c0,0,0,0,0,0c-0.5-0.3-1.2-0.2-1.5,0.3l-3.2,4.7c-1-1.3-1.2-3.2-0.2-4.6l4.8-6.9c0.6-0.8,1.4-1.3,2.4-1.5
			c0.7-0.1,1.3-0.1,1.9,0.2l-3.3,4.8c-0.3,0.5-0.2,1.2,0.3,1.5c0,0,0,0,0,0c0.2,0.2,0.5,0.2,0.8,0.2c0.3-0.1,0.5-0.2,0.7-0.5
			l3.2-4.7C219.1,167,219.2,168.9,218.2,170.3z M233.6,148.1l-4.8,6.9c-0.6,0.8-1.4,1.3-2.4,1.5c-0.7,0.1-1.3,0.1-1.9-0.2l3.3-4.8
			c0.3-0.5,0.2-1.2-0.3-1.5c0,0,0,0,0,0c-0.5-0.3-1.2-0.2-1.5,0.3l-3.2,4.7c-1-1.3-1.2-3.2-0.2-4.6l4.8-6.9c0.6-0.8,1.4-1.3,2.4-1.5
			c0.7-0.1,1.3-0.1,1.9,0.2l-3.3,4.8c-0.3,0.5-0.2,1.2,0.3,1.5c0,0,0,0,0,0c0.2,0.2,0.5,0.2,0.8,0.2c0.3-0.1,0.5-0.2,0.7-0.5
			l3.2-4.7C234.5,144.8,234.6,146.6,233.6,148.1z M249,125.9l-4.8,6.9c-0.6,0.8-1.4,1.3-2.4,1.5c-0.7,0.1-1.3,0.1-1.9-0.2l3.3-4.8
			c0.3-0.5,0.2-1.2-0.3-1.5c0,0,0,0,0,0c-0.5-0.3-1.2-0.2-1.5,0.3l-3.2,4.7c-1-1.3-1.2-3.2-0.2-4.6l4.8-6.9c0.6-0.8,1.4-1.3,2.4-1.5
			c0.7-0.1,1.3-0.1,1.9,0.2l-3.3,4.8c-0.3,0.5-0.2,1.2,0.3,1.5c0,0,0,0,0,0c0.2,0.2,0.5,0.2,0.8,0.2c0.3-0.1,0.5-0.2,0.7-0.5
			l3.2-4.7C249.8,122.5,250,124.4,249,125.9z M264.3,103.6l-4.8,6.9c-0.6,0.8-1.4,1.3-2.4,1.5c-0.7,0.1-1.3,0.1-1.9-0.2l3.3-4.8
			c0.3-0.5,0.2-1.2-0.3-1.5c0,0,0,0,0,0c-0.5-0.3-1.2-0.2-1.5,0.3l-3.2,4.7c-1-1.3-1.2-3.2-0.2-4.6l4.8-6.9c0.6-0.8,1.4-1.3,2.4-1.5
			c0.7-0.1,1.3-0.1,1.9,0.2l-3.3,4.8c-0.3,0.5-0.2,1.2,0.3,1.5c0,0,0,0,0,0c0.2,0.2,0.5,0.2,0.8,0.2c0.3-0.1,0.5-0.2,0.7-0.5
			l3.2-4.7C265.2,100.3,265.3,102.2,264.3,103.6z M279.7,81.4l-4.8,6.9c-0.6,0.8-1.4,1.3-2.4,1.5c-0.7,0.1-1.3,0.1-1.9-0.2l3.3-4.8
			c0.3-0.5,0.2-1.2-0.3-1.5c0,0,0,0,0,0c-0.5-0.3-1.2-0.2-1.5,0.3l-3.2,4.7c-1-1.3-1.2-3.2-0.2-4.6l4.8-6.9c0.6-0.8,1.4-1.3,2.4-1.5
			c0.7-0.1,1.3-0.1,1.9,0.2l-3.3,4.8c-0.3,0.5-0.2,1.2,0.3,1.5c0,0,0,0,0,0c0.2,0.2,0.5,0.2,0.8,0.2c0.3-0.1,0.5-0.2,0.7-0.5
			l3.2-4.7C280.6,78.1,280.7,80,279.7,81.4z"/>
	</defs>
	<clipPath id="SVGID_2_">
		<use xlink:href="#SVGID_1_"  style="overflow:visible;"/>
	</clipPath>
	<g id="X906Ax_2_" class="st3">
		
			<image style="overflow:visible;" width="564" height="392" id="X906Ax_3_" xlink:href="E4AD4CFF33D5A9FE.jpg"  transform="matrix(-0.8391 0 0 -0.7582 413.0026 284.1415)">
		</image>
	</g>
</g>
<g>
	<defs>
		<circle id="SVGID_3_" cx="179.2" cy="227.6" r="22.4"/>
	</defs>
	<clipPath id="SVGID_4_">
		<use xlink:href="#SVGID_3_"  style="overflow:visible;"/>
	</clipPath>
	<g id="_x38_iFEqC_2_" class="st4">
		
			<image style="overflow:visible;" width="564" height="392" id="_x38_iFEqC_3_" xlink:href="E4AD4CFF33D5A9F9.jpg"  transform="matrix(0.504 0 0 0.504 48.9302 150.0406)">
		</image>
	</g>
</g>
<g>
	<circle class="st5" cx="179.2" cy="227.6" r="16.3"/>
</g>
<g>
	<path class="st6" d="M175.6,230.9v-6.6c0-0.5,0.4-0.8,0.8-0.8h-0.5c-0.5,0-0.8,0.4-0.8,0.8v6.6c0,0.5,0.4,0.8,0.8,0.8h0.5
		C176,231.8,175.6,231.4,175.6,230.9z"/>
	<g>
		<path class="st7" d="M179.5,223v-5.9c0.4-0.1,0.8-0.4,0.9-0.9c0.1-0.4,0-0.9-0.3-1.2c-0.2-0.2-0.6-0.4-0.9-0.4
			c-0.3,0-0.6,0.1-0.9,0.4c-0.5,0.5-0.5,1.3,0,1.8c0.2,0.2,0.3,0.3,0.6,0.3v5.9H179.5z M178.8,215.5c0.2-0.2,0.6-0.2,0.9,0
			c0.2,0.2,0.2,0.6,0,0.9c-0.2,0.2-0.6,0.2-0.9,0c-0.1-0.1-0.2-0.3-0.2-0.4S178.6,215.6,178.8,215.5z"/>
		<path class="st7" d="M177,219.8c0.5-0.5,0.5-1.3,0-1.8c-0.5-0.5-1.3-0.5-1.8,0c-0.5,0.5-0.5,1.3,0,1.8c0.2,0.2,0.3,0.3,0.6,0.3
			v0.2c0,0.7,0.6,1.3,1.3,1.3c0.4,0,0.7,0.3,0.7,0.6v0.8h0.6v-0.8c0-0.7-0.6-1.3-1.3-1.3c-0.4,0-0.7-0.3-0.7-0.6v-0.2
			C176.6,220,176.8,219.9,177,219.8z M175.7,218.5c0.2-0.2,0.6-0.2,0.9,0c0.2,0.2,0.2,0.6,0,0.9c-0.2,0.2-0.6,0.2-0.9,0
			c-0.1-0.1-0.2-0.3-0.2-0.4S175.5,218.6,175.7,218.5z"/>
		<path class="st7" d="M183.2,218c-0.5-0.5-1.3-0.5-1.8,0s-0.5,1.3,0,1.8c0.2,0.2,0.3,0.3,0.6,0.3v0.2c0,0.2-0.1,0.3-0.2,0.4
			c-0.1,0.1-0.3,0.2-0.4,0.2c-0.7,0-1.3,0.6-1.3,1.3v0.8h0.6v-0.8c0-0.2,0.1-0.3,0.2-0.4c0.1-0.1,0.3-0.2,0.4-0.2
			c0.7,0,1.3-0.6,1.3-1.3v-0.2c0.4-0.1,0.8-0.4,0.9-0.9C183.6,218.8,183.5,218.3,183.2,218L183.2,218z M182.7,219.3
			c-0.2,0.2-0.6,0.2-0.9,0s-0.2-0.6,0-0.9c0.2-0.2,0.6-0.2,0.9,0C183,218.7,183,219.1,182.7,219.3z"/>
		<path class="st7" d="M190,226.7c-0.2,0.2-0.3,0.4-0.3,0.6h-5.9v0.6h5.9c0.1,0.5,0.6,0.9,1.2,0.9c0.6,0,1.1-0.4,1.2-0.9
			c0.1-0.5-0.1-1.1-0.6-1.4C191,226.2,190.4,226.3,190,226.7L190,226.7z M191.3,228c-0.2,0.2-0.6,0.2-0.9,0c-0.2-0.2-0.2-0.6,0-0.9
			c0.2-0.2,0.6-0.2,0.9,0C191.5,227.4,191.5,227.8,191.3,228L191.3,228z"/>
		<path class="st7" d="M185.2,225.4c0,0.2-0.1,0.3-0.2,0.4c-0.1,0.1-0.3,0.2-0.4,0.2h-0.8v0.6h0.8c0.7,0,1.3-0.6,1.3-1.3
			c0-0.2,0.1-0.3,0.2-0.4c0.1-0.1,0.3-0.2,0.4-0.2h0.2c0.2,0.6,0.7,1,1.4,0.9c0.6-0.1,1.1-0.6,1.1-1.2s-0.5-1.2-1.1-1.2
			c-0.6-0.1-1.2,0.3-1.4,0.9h-0.2C185.8,224.2,185.2,224.7,185.2,225.4z M187.4,224.1c0.2-0.2,0.6-0.2,0.9,0c0.2,0.2,0.2,0.6,0,0.9
			c-0.2,0.2-0.6,0.2-0.9,0c-0.1-0.1-0.2-0.3-0.2-0.4C187.3,224.3,187.3,224.2,187.4,224.1L187.4,224.1z"/>
		<path class="st7" d="M185.2,229.8c0,0.7,0.6,1.3,1.3,1.3h0.2c0.2,0.6,0.7,1,1.4,0.9c0.6-0.1,1.1-0.6,1.1-1.2s-0.5-1.2-1.1-1.2
			c-0.6-0.1-1.2,0.3-1.4,0.9h-0.2c-0.2,0-0.3-0.1-0.4-0.2c-0.1-0.1-0.2-0.3-0.2-0.4c0-0.7-0.6-1.3-1.3-1.3h-0.8v0.6h0.8
			c0.2,0,0.3,0.1,0.4,0.2C185.2,229.4,185.2,229.6,185.2,229.8z M187.4,230.3c0.2-0.2,0.6-0.2,0.9,0c0.2,0.2,0.2,0.6,0,0.9
			c-0.2,0.2-0.6,0.2-0.9,0c-0.1-0.1-0.2-0.3-0.2-0.4C187.3,230.5,187.3,230.4,187.4,230.3L187.4,230.3z"/>
		<path class="st7" d="M179.2,240.5c0.5,0,1-0.3,1.2-0.8s0.1-1-0.3-1.4c-0.2-0.2-0.4-0.3-0.6-0.3v-5.9h-0.6v5.9
			c-0.2,0.1-0.4,0.2-0.6,0.3c-0.4,0.4-0.5,0.9-0.3,1.4C178.2,240.2,178.7,240.5,179.2,240.5z M178.8,238.8c0.2-0.2,0.6-0.2,0.9,0
			c0.2,0.2,0.2,0.6,0,0.9c-0.2,0.2-0.6,0.2-0.9,0c-0.1-0.1-0.2-0.3-0.2-0.4C178.6,239.1,178.6,239,178.8,238.8z"/>
		<path class="st7" d="M181.4,235.4c-0.4,0.4-0.5,1-0.2,1.5c0.3,0.5,0.9,0.7,1.4,0.6c0.6-0.2,0.9-0.7,0.9-1.2c0-0.6-0.4-1.1-1-1.2
			v-0.2c0-0.7-0.6-1.3-1.3-1.3c-0.2,0-0.3-0.1-0.4-0.2c-0.1-0.1-0.2-0.3-0.2-0.4v-0.8h-0.6v0.8c0,0.7,0.6,1.3,1.3,1.3
			c0.2,0,0.3,0.1,0.4,0.2c0.1,0.1,0.2,0.3,0.2,0.4v0.2C181.7,235.1,181.6,235.3,181.4,235.4z M182.7,236.7c-0.2,0.2-0.6,0.2-0.9,0
			c-0.2-0.2-0.2-0.6,0-0.9s0.6-0.2,0.9,0C183,236.1,183,236.5,182.7,236.7z"/>
		<path class="st7" d="M177,234.3c0.7,0,1.3-0.6,1.3-1.3v-0.8h-0.6v0.8c0,0.4-0.3,0.6-0.7,0.6c-0.7,0-1.3,0.6-1.3,1.3v0.2
			c-0.2,0.1-0.4,0.2-0.6,0.3c-0.4,0.4-0.5,0.9-0.3,1.4s0.7,0.8,1.2,0.8c0.5,0,1-0.3,1.2-0.8c0.2-0.5,0.1-1-0.3-1.4
			c-0.2-0.2-0.4-0.3-0.6-0.3v-0.2C176.4,234.6,176.7,234.3,177,234.3z M176.5,236.7c-0.2,0.2-0.6,0.2-0.9,0s-0.2-0.6,0-0.9
			c0.2-0.2,0.6-0.2,0.9,0C176.8,236.1,176.8,236.5,176.5,236.7L176.5,236.7z"/>
		<path class="st7" d="M168.4,228.5c0.2-0.2,0.3-0.4,0.3-0.6h5.9v-0.6h-5.9c-0.1-0.5-0.6-0.9-1.2-0.9c-0.6,0-1.1,0.4-1.2,0.9
			c-0.1,0.5,0.1,1.1,0.6,1.4C167.3,229,168,228.9,168.4,228.5L168.4,228.5z M167,227.2c0.2-0.2,0.6-0.2,0.9,0c0.2,0.2,0.2,0.6,0,0.9
			c-0.2,0.2-0.6,0.2-0.9,0c-0.1-0.1-0.2-0.3-0.2-0.4C166.9,227.4,166.9,227.3,167,227.2z"/>
		<path class="st7" d="M172.5,229.8c0,0.2-0.1,0.3-0.2,0.4c-0.1,0.1-0.3,0.2-0.4,0.2h-0.2c-0.2-0.6-0.7-1-1.4-0.9
			c-0.6,0.1-1.1,0.6-1.1,1.2c0,0.6,0.5,1.2,1.1,1.2c0.6,0.1,1.2-0.3,1.4-0.9h0.2c0.7,0,1.3-0.6,1.3-1.3c0-0.2,0.1-0.3,0.2-0.4
			c0.1-0.1,0.3-0.2,0.4-0.2h0.8v-0.6h-0.8C173.1,228.5,172.5,229.1,172.5,229.8z M170.9,231.1c-0.2,0.2-0.6,0.2-0.9,0
			c-0.2-0.2-0.2-0.6,0-0.9c0.2-0.2,0.6-0.2,0.9,0C171.1,230.5,171.1,230.9,170.9,231.1z"/>
		<path class="st7" d="M170.5,225.7c0.6,0,1.1-0.4,1.2-0.9h0.2c0.2,0,0.3,0.1,0.4,0.2c0.1,0.1,0.2,0.3,0.2,0.4
			c0,0.7,0.6,1.3,1.3,1.3h0.8v-0.6h-0.8c-0.2,0-0.3-0.1-0.4-0.2c-0.1-0.1-0.2-0.3-0.2-0.4c0-0.7-0.6-1.3-1.3-1.3h-0.2
			c-0.2-0.6-0.8-1-1.4-0.9c-0.6,0.1-1.1,0.7-1,1.3C169.3,225.2,169.8,225.7,170.5,225.7z M170,224.1c0.2-0.2,0.6-0.2,0.9,0
			c0.2,0.2,0.2,0.6,0,0.9c-0.2,0.2-0.6,0.2-0.9,0c-0.1-0.1-0.2-0.3-0.2-0.4C169.9,224.3,169.9,224.2,170,224.1z"/>
	</g>
	<path class="st8" d="M184,224.3c0-0.8-0.7-1.5-1.5-1.5h-6.6c-0.8,0-1.5,0.7-1.5,1.5v6.6c0,0.8,0.7,1.5,1.5,1.5h6.6
		c0.8,0,1.5-0.7,1.5-1.5V224.3z M183.3,230.9c0,0.5-0.4,0.8-0.8,0.8h-6.6c-0.5,0-0.8-0.4-0.8-0.8v-6.6c0-0.5,0.4-0.8,0.8-0.8h6.6
		c0.5,0,0.8,0.4,0.8,0.8V230.9z"/>
	<path class="st8" d="M182.3,224.8c0-0.2-0.1-0.3-0.3-0.3h-5.6c-0.2,0-0.3,0.1-0.3,0.3v5.6c0,0.2,0.1,0.3,0.3,0.3h5.6
		c0.2,0,0.3-0.1,0.3-0.3V224.8z M176.7,225.1h4.9v4.9h-4.9V225.1z"/>
</g>
<g>
	<defs>
		<path id="SVGID_5_" d="M179.2,205.2c-12.4,0-22.4,10-22.4,22.4c0,12.4,10,22.4,22.4,22.4c12.4,0,22.4-10,22.4-22.4
			C201.6,215.2,191.5,205.2,179.2,205.2z M179.2,243.5c-8.8,0-15.9-7.1-15.9-15.9c0-8.8,7.1-15.9,15.9-15.9
			c8.8,0,15.9,7.1,15.9,15.9C195,236.3,187.9,243.5,179.2,243.5z"/>
	</defs>
	<clipPath id="SVGID_6_">
		<use xlink:href="#SVGID_5_"  style="overflow:visible;"/>
	</clipPath>
	<g id="_x38_iFEqC_1_" class="st9">
		
			<image style="overflow:visible;" width="564" height="392" id="_x38_iFEqC_4_" xlink:href="E4AD4CFF33D5A9FB.jpg"  transform="matrix(0.504 0 0 0.504 57.6092 142.9993)">
		</image>
	</g>
</g>
</svg>
